PathFileType	4	(X/Y/Z)	pose2sim_0-675.trc
DataRate	CameraRate	NumFrames	NumMarkers	Units	OrigDataRate	OrigDataStartFrame	OrigNumFrames
50	50	7	22	m	50	0	676
Frame#	Time	Hip			RHip			RKnee			RAnkle			RBigToe			RSmallToe			RHeel			LHip			LKnee			LAnkle			LBigToe			LSmallToe			LHeel			Neck			Head			Nose			RShoulder			RElbow			RWrist			LShoulder			LElbow			LWrist			
		X1	Y1	Z1	X2	Y2	Z2	X3	Y3	Z3	X4	Y4	Z4	X5	Y5	Z5	X6	Y6	Z6	X7	Y7	Z7	X8	Y8	Z8	X9	Y9	Z9	X10	Y10	Z10	X11	Y11	Z11	X12	Y12	Z12	X13	Y13	Z13	X14	Y14	Z14	X15	Y15	Z15	X16	Y16	Z16	X17	Y17	Z17	X18	Y18	Z18	X19	Y19	Z19	X20	Y20	Z20	X21	Y21	Z21	X22	Y22	Z22	
0	0.0	0.11319560813151573	0.794896149469684	-0.05983834529108846	0.028687969554304752	0.7866693479309719	-0.04010913064360888	-0.021675812468667174	0.4161506934568858	-0.06478798820034111	-0.07612772339491286	0.0679656346079143	-0.0712125963084919	-0.08373838600745652	0.04632031584754721	0.09667385100709021	-0.12968514116103289	0.040905492370159245	0.048244180552262775	-0.07005099772733571	0.022786154989387835	-0.10040476096119176	0.2012924653935724	0.7844621982966692	-0.06308754003720435	0.24906923120436558	0.4106920343381891	-0.09520319845203838	0.28111588455182496	0.06458332004695162	-0.09046864043573054	0.3248930882117876	0.04641051835155179	0.07224307992094324	0.35995844029164187	0.042074929325278856	0.017998968935213636	0.26682729400326316	0.019786675740247457	-0.1114709723287358	0.1291480544864807	1.2886163726585038	-0.03293306445318312	0.13875433144015034	1.5050767492698531	0.00548335666339053	0.13850375628693418	1.3900061033167943	0.0585985602866543	-0.024421377801130476	1.2005830986460648	-0.03782380742391586	-0.09955678989203702	0.9800830521275411	-0.06411849842194903	-0.1676120041762358	0.7751134086093244	-0.052273757359447184	0.2802681231902078	1.1904905873303944	-0.07116956171009821	0.3464236560786681	0.9687341001280558	-0.09268359995399358	0.4011065141070452	0.7632472531566031	-0.0928449836611107
1	0.02	0.11191520217604872	0.7877725542116578	-0.05898302925355338	0.02472317792870197	0.7800557709205315	-0.045805171014086245	-0.020749490400512008	0.41952489149737276	-0.06446193603217946	-0.07544609919214551	0.07481105728189148	-0.07376001392327526	-0.08576513240564844	0.04214838086183991	0.07354905912036966	-0.12881966263540046	0.037931691964613594	0.028636040179397276	-0.07398968031664896	0.03439614610844138	-0.1057617766315059	0.20397889965745591	0.778228653462084	-0.06516194805052562	0.25166589344583284	0.4122404234899141	-0.09421126773188161	0.281751321564184	0.068283568226525	-0.091475483316754	0.32284853687530346	0.03996032048555184	0.05106516598801051	0.3560662013165534	0.03753372592935536	0.002630721415240925	0.2717180364954101	0.02768136200091487	-0.11556551513557653	0.12932772172867127	1.285799825035233	-0.02804816336874812	0.13891409882008454	1.4986349811521928	0.003183017285128495	0.14853755913757402	1.3868978001508188	0.06986011504899352	-0.019054742316030812	1.2008473569760068	-0.03821312766446946	-0.0988666728300907	0.9822540445008826	-0.07176381593144399	-0.16827496027038286	0.7793816442199578	-0.05750989432985287	0.2746877601510125	1.1943114936128214	-0.06740700252662937	0.33936693212712726	0.9690518005218556	-0.08966205351940938	0.3977529069442498	0.7642613426715633	-0.09831574398766499
2	0.04	0.11303187244696467	0.7889207796407629	-0.06193691835505871	0.026460853764856747	0.7823642772331759	-0.049162752539168755	-0.022312291559916556	0.42015804704387216	-0.06467051161522469	-0.07650168952265109	0.07567488301915513	-0.07450592093856337	-0.08111292280955379	0.041865669211423	0.0747401180188145	-0.12452769038131004	0.039214500039419425	0.03259494884516953	-0.07295832093842759	0.03335411464058498	-0.10915756980780664	0.20314774222387805	0.78036697721477	-0.06643202617195167	0.25050211326400695	0.4126816107977711	-0.09653612140999353	0.2830198352327457	0.0704469246065754	-0.09183926705956214	0.32410091019118425	0.038545812748137655	0.0491396246432293	0.35753306231049087	0.035874213072213515	-0.0025229953133053505	0.2712644123990838	0.028642073881339845	-0.12141608705145278	0.13061475165794523	1.286626409721038	-0.029013265101660288	0.1389483184415072	1.4999949377643877	0.00590555645855287	0.14646277767008561	1.3865503468280769	0.07745995122455224	-0.020289352931205953	1.199685450441469	-0.039081012470209224	-0.10065897079327121	0.9787108997969473	-0.0701268935397017	-0.17074951752914813	0.7771363182377123	-0.059378107645855	0.27465727080908364	1.1930274782748869	-0.06857897559224488	0.34105145200164255	0.9693225026893798	-0.09035023842349851	0.39925312874994057	0.7639852592520806	-0.0959996224965364
3	0.06	0.11106609387930107	0.7891144511598924	-0.06072873929029429	0.024265059481317304	0.7824413449928431	-0.05054666460711534	-0.021591473743902537	0.4204715542190235	-0.06410712737206692	-0.07671922682845171	0.0750406105062948	-0.07782340222845809	-0.07875961895282488	0.04110701244683423	0.07551471536682898	-0.12429888453961233	0.038311979569455576	0.03352536786095893	-0.07505681957237244	0.03512122481216658	-0.10595260259850522	0.20121899280365577	0.7807426721398596	-0.07135576289509324	0.25058289187806176	0.41414626715267283	-0.09064673027104501	0.2817476742024396	0.07219922696271845	-0.08979286764508963	0.32367153941421783	0.039551531841353335	0.04472384532665507	0.35756767846190624	0.038020093407647025	-0.0017753648979735445	0.27117692917305003	0.030416344084874477	-0.1185042397537288	0.12986235559757114	1.2882079639042832	-0.02987048142847423	0.13834540264005182	1.501336845403549	0.004772412597390634	0.14583950540456003	1.3866399371094704	0.07696194786520154	-0.020065066934704678	1.2006591791018453	-0.038065341843597444	-0.10025401074623501	0.9801692390932893	-0.06418048777608856	-0.1694027178355818	0.7782300090305619	-0.056161983974657194	0.27542344667599095	1.1918645404051176	-0.07089663970199608	0.3401136164667379	0.9709307582895624	-0.0863852361429098	0.3966977317310254	0.7639755556651573	-0.0979512939706795
4	0.08	0.11289303884860154	0.7926357688163956	-0.05649828162930095	0.026672753823522934	0.7861315114082106	-0.036952983970634824	-0.022934828138533522	0.41619238197874553	-0.06641504428850721	-0.07625143379784236	0.06852619948318195	-0.07335709898569039	-0.08479465504300923	0.04259215245750894	0.09843026245006067	-0.1308495229056182	0.04119911036515906	0.050195036526140505	-0.07007526982088964	0.025163926428882353	-0.10026582991946274	0.20112496543885855	0.7838926598358484	-0.059634758770638244	0.2497024194701904	0.41165038908722174	-0.09644605398240448	0.2825497142789802	0.0658433781885104	-0.09141060877761185	0.3254297405990168	0.04424345501566454	0.0690024393530966	0.3610982851257511	0.04216742778037086	0.015539608877011685	0.2684438717319928	0.022911068772936926	-0.10992959210476477	0.12878149700349995	1.2858816504506791	-0.031061108613148994	0.13921248464948807	1.5022558988563641	0.004267576565450579	0.13844243161818545	1.3882963719115398	0.05716870973998587	-0.02456897441999729	1.2006789681395231	-0.03670238941830235	-0.09944436187520576	0.9795651684085717	-0.0652126204156005	-0.16848088147600268	0.7757221019482713	-0.052118484041184965	0.27757579819118455	1.192643019384827	-0.0700576228686023	0.3445555471005156	0.9666180312479578	-0.09445369131947573	0.40172690091746643	0.7640385117269374	-0.08903681493688098
5	0.1	0.11187100076814852	0.7874689118567276	-0.05836246735468523	0.024349546214124988	0.7823382738855188	-0.051520021658922235	-0.021945677044036986	0.42243826795191747	-0.06523841403964177	-0.07544091205674328	0.07598315470329459	-0.0761161961687242	-0.08151000866440679	0.04185740196292794	0.07870116940709933	-0.1260769394138984	0.04070001322655919	0.03425001101161849	-0.07380796315630408	0.03837483077620042	-0.10736469478005019	0.20223464936844412	0.7779798875141251	-0.06812875071497915	0.25012732703319	0.41390765514007954	-0.09463931779030853	0.2808676867586263	0.07198719138795792	-0.08896374033008836	0.3240954753203306	0.03692659086996039	0.048718141289672647	0.3551445007068807	0.03355698343134212	-0.0008398718386200517	0.27046069012157337	0.03167576040089568	-0.117329117895062	0.12921649457101816	1.2877645882115711	-0.027959704832597014	0.13991447168100785	1.4980017333196654	6.08169827793536e-05	0.1456746625766703	1.3856101843906876	0.08213825085381851	-0.019030798627669977	1.1997142795631477	-0.04130792536709482	-0.0995958109415394	0.9826869749576107	-0.07243496671234005	-0.1698300191171746	0.7802058683597435	-0.05462981040137212	0.2740314063054683	1.1929805387060863	-0.07192928785068335	0.3398697459215251	0.9704916705674685	-0.09216447373984167	0.3977922439547839	0.7661263367208463	-0.09259276227690559
6	0.12	0.11216677673422645	0.7879604165808546	-0.0630590978254864	0.02441523499096887	0.7815595554070485	-0.04790496269864873	-0.02070354096197929	0.41920836555654517	-0.0663162300517623	-0.07619224871544887	0.07601155670421879	-0.07616248908351834	-0.08045049037605452	0.041331785625012385	0.07358617154578592	-0.12317754168629014	0.03725009023927032	0.030887025290007912	-0.0751162051480772	0.035015544959222336	-0.10901691667786327	0.20334225000006273	0.7798042673496322	-0.06920432672215483	0.2501080864501456	0.4116990337255236	-0.09088496078223801	0.2817105470294535	0.07175294149208193	-0.08948302025217063	0.32294856299167046	0.037549574112083484	0.04505555985636568	0.35685605079671745	0.03385387649209659	-0.0016294916455897735	0.2701066113208687	0.03127700891703061	-0.11791085065613867	0.13089666344439263	1.2857849217319552	-0.02905254403303663	0.13893699605082918	1.5000653121785705	-0.0006840077624497519	0.15006468648004376	1.3877838950264558	0.07205281367531456	-0.019915722472834442	1.2000435216468868	-0.04064092317611482	-0.09862812345298774	0.9812756445562009	-0.06956452595726408	-0.1712906029563742	0.7775808049928535	-0.05808042193903542	0.27357959563527795	1.193317786606853	-0.07109504534793253	0.3380155827600411	0.9710022045728003	-0.08952559518716431	0.3987781817872713	0.7644090275274277	-0.09472799179061035
